<svg width="144" height="144" viewBox="0 0 144 144" fill="none" xmlns="http://www.w3.org/2000/svg">
<rect width="64.1308" height="21.9475" rx="10" transform="matrix(0.688524 0.725213 -0.688524 0.725213 25.1115 41)" fill="#FFCA28"/>
<rect width="64.1308" height="21.9475" rx="10" transform="matrix(0.688524 -0.725213 0.688524 0.725213 10 87.5085)" fill="#FFCA28"/>
<path d="M133 72.3604C133 89.3963 119.888 103.207 103.714 103.207C87.5403 103.207 74.4286 89.3963 74.4286 72.3604C74.4286 55.3245 87.5403 41.5142 103.714 41.5142C119.888 41.5142 133 55.3245 133 72.3604ZM94.5193 72.3604C94.5193 77.7093 98.636 82.0454 103.714 82.0454C108.793 82.0454 112.909 77.7093 112.909 72.3604C112.909 67.0115 108.793 62.6754 103.714 62.6754C98.636 62.6754 94.5193 67.0115 94.5193 72.3604Z" fill="#FFCA28"/>
</svg>
