<svg width="252" height="122" viewBox="0 0 252 122" fill="none" xmlns="http://www.w3.org/2000/svg">
<rect x="30.9599" width="127.937" height="43.784" rx="10" transform="rotate(45 30.9599 0)" fill="#FFCA28"/>
<rect y="90.4651" width="127.937" height="43.784" rx="10" transform="rotate(-45 0 90.4651)" fill="#FFCA28"/>
<path d="M252 61C252 94.1371 225.137 121 192 121C158.863 121 132 94.1371 132 61C132 27.8629 158.863 1 192 1C225.137 1 252 27.8629 252 61ZM173.161 61C173.161 71.4042 181.596 79.8385 192 79.8385C202.404 79.8385 210.839 71.4042 210.839 61C210.839 50.5958 202.404 42.1615 192 42.1615C181.596 42.1615 173.161 50.5958 173.161 61Z" fill="#FFCA28"/>
</svg>
